HIERARCHY
ROOT Hips
{
	OFFSET 0.000000 0.000000 0.000000
	CHANNELS 6 Xposition Yposition Zposition Xrotation Yrotation Zrotation
	JOINT LeftUpLeg_virtual
	{
		OFFSET 0.000000 0.000000 0.000000
		CHANNELS 3 Xrotation Yrotation Zrotation
		JOINT LeftUpLeg
		{
			OFFSET 11.394100 -6.187798 -0.413800
			CHANNELS 3 Xrotation Yrotation Zrotation
			JOINT LeftLeg
			{
				OFFSET 0.430247 -32.302673 3.732800
				CHANNELS 3 Xrotation Yrotation Zrotation
				JOINT LeftFoot
				{
					OFFSET -0.430247 -48.264931 -6.423300
					CHANNELS 3 Xrotation Yrotation Zrotation
					JOINT LeftToeBase
					{
						OFFSET 4.230900 -16.068199 23.438400
						CHANNELS 3 Xrotation Yrotation Zrotation
						JOINT LeftToe_End
						{
							OFFSET 4.510700 0.695400 19.974600
							CHANNELS 3 Xrotation Yrotation Zrotation
							End Site
							{
								OFFSET 0 0 0
							}
						}
					}
				}
			}
		}
	}
	JOINT RightUpLeg_virtual
	{
		OFFSET 0.000000 0.000000 0.000000
		CHANNELS 3 Xrotation Yrotation Zrotation
		JOINT RightUpLeg
		{
			OFFSET -11.333700 -6.187798 -0.413800
			CHANNELS 3 Xrotation Yrotation Zrotation
			JOINT RightLeg
			{
				OFFSET -0.430392 -32.302628 3.733000
				CHANNELS 3 Xrotation Yrotation Zrotation
				JOINT RightFoot
				{
					OFFSET 0.430392 -48.264973 -6.423500
					CHANNELS 3 Xrotation Yrotation Zrotation
					JOINT RightToeBase
					{
						OFFSET -4.230900 -16.068199 23.438400
						CHANNELS 3 Xrotation Yrotation Zrotation
						JOINT RightToe_End
						{
							OFFSET -4.510700 0.695400 19.974600
							CHANNELS 3 Xrotation Yrotation Zrotation
							End Site
							{
								OFFSET 0 0 0
							}
						}
					}
				}
			}
		}
	}
	JOINT Spine_virtual
	{
		OFFSET 0.000000 0.000000 0.000000
		CHANNELS 3 Xrotation Yrotation Zrotation
		JOINT Spine
		{
			OFFSET -0.002400 12.777504 0.315300
			CHANNELS 3 Xrotation Yrotation Zrotation
			JOINT Spine1
			{
				OFFSET -0.002067 5.816869 0.032633
				CHANNELS 3 Xrotation Yrotation Zrotation
				JOINT Spine1_split
				{
					OFFSET -0.002067 5.816869 0.032633
					CHANNELS 3 Xrotation Yrotation Zrotation
					JOINT Spine2
					{
						OFFSET -0.002067 5.816869 0.032633
						CHANNELS 3 Xrotation Yrotation Zrotation
						JOINT Neck_virtual
						{
							OFFSET 0.000000 0.000000 0.000000
							CHANNELS 3 Xrotation Yrotation Zrotation
							JOINT Neck
							{
								OFFSET -0.003700 21.199493 -0.826900
								CHANNELS 3 Xrotation Yrotation Zrotation
								JOINT Head
								{
									OFFSET 0.000000 20.442200 4.834800
									CHANNELS 3 Xrotation Yrotation Zrotation
									JOINT HeadTop_End
									{
										OFFSET 0.000000 34.668396 4.968400
										CHANNELS 3 Xrotation Yrotation Zrotation
										End Site
										{
											OFFSET 0 0 0
										}
									}
								}
							}
						}
						JOINT LeftShoulder_virtual
						{
							OFFSET 0.000000 0.000000 0.000000
							CHANNELS 3 Xrotation Yrotation Zrotation
							JOINT LeftShoulder
							{
								OFFSET 3.288150 8.794197 -1.372250
								CHANNELS 3 Xrotation Yrotation Zrotation
								JOINT LeftShoulder_split
								{
									OFFSET 3.288150 8.794197 -1.372250
									CHANNELS 3 Xrotation Yrotation Zrotation
									JOINT LeftArm
									{
										OFFSET 11.953299 -2.279007 -0.146200
										CHANNELS 3 Xrotation Yrotation Zrotation
										JOINT LeftForeArm
										{
											OFFSET 18.448900 0.000000 0.000000
											CHANNELS 3 Xrotation Yrotation Zrotation
											JOINT LeftHand
											{
												OFFSET 29.527798 0.000000 0.000000
												CHANNELS 3 Xrotation Yrotation Zrotation
												End Site
												{
													OFFSET 0 0 0
												}
											}
										}
									}
								}
							}
						}
						JOINT RightShoulder_virtual
						{
							OFFSET 0.000000 0.000000 0.000000
							CHANNELS 3 Xrotation Yrotation Zrotation
							JOINT RightShoulder
							{
								OFFSET -3.249400 8.794197 -1.372250
								CHANNELS 3 Xrotation Yrotation Zrotation
								JOINT RightShoulder_split
								{
									OFFSET -3.249400 8.794197 -1.372250
									CHANNELS 3 Xrotation Yrotation Zrotation
									JOINT RightArm
									{
										OFFSET -11.953299 -2.279007 -0.146200
										CHANNELS 3 Xrotation Yrotation Zrotation
										JOINT RightForeArm
										{
											OFFSET -18.448900 0.000000 0.000000
											CHANNELS 3 Xrotation Yrotation Zrotation
											JOINT RightHand
											{
												OFFSET -29.527802 0.000000 0.000000
												CHANNELS 3 Xrotation Yrotation Zrotation
												End Site
												{
													OFFSET 0 0 0
												}
											}
										}
									}
								}
							}
						}
					}
				}
			}
		}
	}
}
MOTION
Frames: 11
Frame Time: 0.03333333
-59.515816 28.131824 -1.064651 0.000000 0.000000 0.000000 -46.942176 7.019744 103.535921 -40.984472 13.822289 -1.580852 69.405507 5.595964 -11.129728 -8.211350 -13.902432 3.723835 -7.406547 -4.313097 9.349440 0.000000 0.000000 0.000000 -56.778816 4.541944 107.572706 -61.387753 -18.199797 -30.201068 120.877956 -1.816045 1.948364 -4.431566 3.843233 15.035061 12.821833 -2.267663 5.031088 0.000000 0.000000 0.000000 -48.813764 4.420020 98.758600 14.388468 -1.046354 -9.443571 17.779544 0.464389 -2.830490 0.132344 1.605810 -0.765601 0.000000 0.000000 0.000000 12.320431 1.179765 -2.433708 43.972690 7.413459 -10.944542 -4.072741 11.990448 -1.497172 0.000000 0.000000 0.000000 15.377664 2.077463 -2.708887 0.364051 -3.375674 -12.815409 0.491728 -12.498582 -0.175251 -56.247926 -7.154738 -21.961328 46.551417 -13.463160 11.288989 0.000000 0.000000 0.000000 16.432752 2.018552 -3.253915 5.268956 21.220532 -10.742315 -9.948479 -7.424788 2.882694 -22.421447 -4.611755 16.165746 22.793629 47.977786 -14.741826 0.000000 0.000000 0.000000 
-63.661682 24.180668 -0.027290 0.000000 0.000000 0.000000 -50.268324 -2.816649 109.902942 -33.711515 5.817604 -7.407797 67.442968 8.802622 -8.721171 -10.342417 -7.601069 2.048744 -9.734466 -3.949510 7.499664 0.000000 0.000000 0.000000 -58.488658 -5.741206 113.101423 -60.315789 -14.489510 -32.591672 120.005686 -4.161615 4.166471 -5.954556 0.553899 17.057621 10.246971 -2.892351 5.706213 0.000000 0.000000 0.000000 -52.473198 -3.989134 103.954373 15.206697 -1.894132 -9.404323 17.700396 -0.033466 -1.722742 0.456403 2.709359 -0.374125 0.000000 0.000000 0.000000 11.974554 0.494823 -1.326581 40.508257 4.362600 -8.203420 -4.679029 4.501283 -1.324602 0.000000 0.000000 0.000000 15.065463 1.493642 -1.361928 0.071304 -3.692920 -16.957999 -1.090673 -11.799791 -0.290650 -60.210979 -0.938105 -25.462604 47.915266 -15.934705 13.036645 0.000000 0.000000 0.000000 16.495409 1.385402 -2.123081 5.079526 21.820218 -10.139279 -9.510804 -7.618743 2.697167 -18.938819 -3.259032 14.946242 26.554947 45.339533 -19.048419 0.000000 0.000000 0.000000 
-68.252861 22.422050 0.543816 0.000000 0.000000 0.000000 -53.058716 -11.094529 113.343615 -29.553689 -1.686336 -9.328251 64.710606 11.880237 -6.915530 -5.994989 -0.775027 -1.187179 -10.244738 -3.165668 5.453169 0.000000 0.000000 0.000000 -59.163290 -14.132675 115.642110 -55.660202 -12.810440 -35.558170 114.930186 -6.338924 5.725681 -5.395174 -0.274705 21.034411 5.572274 -2.684176 3.920897 0.000000 0.000000 0.000000 -55.819315 -10.771081 106.837430 16.127340 -2.271045 -8.430514 16.465209 -0.115869 -0.282126 -0.701531 2.799918 0.854673 0.000000 0.000000 0.000000 10.682775 0.269081 0.006618 35.324707 1.109350 -5.330138 -8.225454 -3.968179 -1.231345 0.000000 0.000000 0.000000 13.525350 1.351759 0.318633 -0.240347 -3.644149 -20.007397 -2.333963 -10.890639 -1.572460 -63.461842 10.905077 -25.842924 50.901322 -20.920040 17.964584 0.000000 0.000000 0.000000 15.186429 1.083439 -0.716835 5.140805 22.189178 -9.895089 -10.111668 -7.979078 2.832629 -16.822221 2.150665 12.762195 24.667834 43.250896 -19.024609 0.000000 0.000000 0.000000 
-72.926437 22.571606 0.402607 0.000000 0.000000 0.000000 -56.544346 -17.242112 113.978775 -27.677760 -6.816201 -7.325693 61.585801 14.489326 -5.884862 5.200058 4.474293 -6.363913 -8.317824 -2.199096 3.325969 0.000000 0.000000 0.000000 -60.813614 -20.181080 115.311721 -48.638966 -13.478885 -37.652787 104.671440 -8.663196 6.837821 -4.020226 0.356158 25.010266 2.410579 -1.620845 0.739173 0.000000 0.000000 0.000000 -59.454741 -15.911332 107.400490 17.390331 -2.236320 -6.389847 14.493663 -0.147640 1.310322 -1.471573 2.124878 1.793622 0.000000 0.000000 0.000000 8.922960 0.192324 1.383028 29.149577 -1.810905 -2.799972 -13.685661 -11.675781 -1.907378 0.000000 0.000000 0.000000 11.304140 1.239438 2.119973 -0.511916 -3.798173 -21.389337 -3.098634 -9.936009 -3.387420 -67.110905 24.425207 -22.592749 56.412308 -26.522765 26.307032 0.000000 0.000000 0.000000 13.019148 0.810335 0.776924 5.404667 21.876963 -10.047735 -10.904604 -9.377468 3.630428 -16.758549 9.152998 10.638499 17.507218 40.381673 -14.834317 0.000000 0.000000 0.000000 
-77.391167 24.168983 -0.683571 0.000000 0.000000 0.000000 -60.776540 -21.201664 112.041446 -27.365320 -8.618897 -2.345074 58.755855 16.629339 -5.633199 19.290170 6.483845 -11.483258 -5.288357 -1.413115 1.656141 0.000000 0.000000 0.000000 -64.586617 -23.504378 112.923873 -40.869311 -15.840580 -38.058176 90.417272 -10.814303 7.223499 -1.607364 1.784076 27.092155 2.829162 -0.192345 -2.285785 0.000000 0.000000 0.000000 -63.344308 -19.567215 106.078910 19.058987 -1.815746 -3.408957 12.414818 -0.407341 2.807214 -2.174050 1.902274 2.073415 0.000000 0.000000 0.000000 7.253761 -0.000081 2.676855 23.318665 -3.844943 -0.560300 -19.730396 -16.902765 -3.247174 0.000000 0.000000 0.000000 9.047110 0.901258 3.770988 -0.692774 -4.124954 -21.098528 -3.649710 -9.490417 -4.900312 -71.251864 34.898869 -17.161702 64.335416 -29.899799 37.046000 0.000000 0.000000 0.000000 10.611355 0.333860 2.094004 5.751833 20.509219 -10.701155 -11.890085 -11.712225 5.019243 -17.693291 14.901760 9.513108 7.361348 35.434161 -8.287030 0.000000 0.000000 0.000000 
-81.614304 26.386303 -1.760571 0.000000 0.000000 0.000000 -65.461073 -22.642238 108.513927 -27.799565 -7.605598 3.789210 55.616618 18.557294 -5.627834 30.051309 5.900932 -14.017808 -2.696610 -1.051044 0.912390 0.000000 0.000000 0.000000 -70.370073 -24.190129 109.825958 -34.238434 -18.576460 -37.005821 75.364546 -12.741877 7.291168 2.807339 2.869485 26.625160 5.548796 0.768811 -3.911365 0.000000 0.000000 0.000000 -66.954166 -22.022548 103.228658 20.962112 -1.179510 0.060478 10.659881 -0.921393 3.934173 -1.982584 1.942181 1.748717 0.000000 0.000000 0.000000 5.950182 -0.410489 3.640498 18.432073 -5.048286 1.588591 -24.948758 -19.315905 -4.398688 0.000000 0.000000 0.000000 7.318730 0.295275 4.998525 -0.765465 -4.900235 -19.415808 -3.551904 -8.706629 -6.011185 -73.755436 40.171358 -12.354712 71.510387 -29.071163 46.537740 0.000000 0.000000 0.000000 8.529648 -0.365429 3.064618 5.994103 18.206235 -11.465700 -12.466198 -14.362686 6.334674 -18.770224 18.206629 9.762295 -2.638992 28.541965 -2.041305 0.000000 0.000000 0.000000 
-85.437828 28.270229 -2.591606 0.000000 0.000000 0.000000 -70.250258 -21.949107 104.969837 -28.527634 -4.660063 9.473625 51.083886 19.696806 -5.034907 33.867387 3.905799 -13.377893 -2.225750 -1.198523 1.443627 0.000000 0.000000 0.000000 -76.857066 -23.668415 107.239837 -30.733553 -20.504020 -35.830974 63.612188 -14.078572 7.191392 9.295751 3.142431 24.928799 7.394217 0.828599 -4.087296 0.000000 0.000000 0.000000 -70.335130 -23.469331 99.999017 22.635290 -0.592746 3.318097 9.316912 -1.572950 4.579643 -0.876997 2.406192 0.615764 0.000000 0.000000 0.000000 4.984047 -0.951630 4.190832 15.217629 -5.932675 3.971831 -28.637790 -19.429226 -4.591049 0.000000 0.000000 0.000000 6.339548 -0.474800 5.681169 -0.666542 -5.917227 -16.686316 -2.302321 -7.944354 -6.513999 -72.690589 40.476971 -11.009783 74.450011 -24.895201 51.332878 0.000000 0.000000 0.000000 7.163111 -1.078391 3.614313 6.043764 15.012515 -12.634834 -12.488702 -16.181461 7.242839 -19.674626 18.429572 11.007106 -10.571131 21.020638 2.289964 0.000000 0.000000 0.000000 
-88.864143 29.419128 -2.892361 0.000000 0.000000 0.000000 -74.154722 -19.884503 102.535913 -29.351071 -1.306528 13.479152 45.277529 19.180078 -3.706824 31.282277 0.842392 -11.175889 -3.562885 -1.779082 2.969076 0.000000 0.000000 0.000000 -82.642338 -22.688555 105.643765 -30.445401 -21.658125 -35.844297 56.954301 -14.867619 7.029467 17.008648 2.691080 22.850480 6.074059 0.199318 -3.287021 0.000000 0.000000 0.000000 -72.777633 -23.827094 97.448604 23.568010 -0.187627 5.849816 8.333000 -2.107811 4.826048 -0.443810 3.458212 -0.428620 0.000000 0.000000 0.000000 4.128390 -1.425650 4.409636 13.751893 -7.126870 6.774809 -30.642015 -18.599988 -3.669888 0.000000 0.000000 0.000000 5.880059 -1.116572 5.918306 -0.501784 -6.790262 -13.540996 -0.740979 -6.879827 -6.671792 -68.191721 37.154385 -13.081130 73.182519 -19.716389 51.929433 0.000000 0.000000 0.000000 6.383264 -1.520588 3.809545 5.830405 11.509189 -14.306324 -12.682801 -16.291224 6.881979 -20.143348 16.205992 11.995933 -16.234960 14.655139 4.630439 0.000000 0.000000 0.000000 
-91.757339 29.599262 -2.523964 0.000000 0.000000 0.000000 -77.210241 -16.896811 102.064698 -29.534431 1.390684 15.333903 39.033718 17.137093 -2.107073 24.804071 -2.495766 -8.650394 -5.001579 -2.561610 4.337863 0.000000 0.000000 0.000000 -86.592189 -21.682630 104.819409 -32.667548 -22.320233 -37.564903 55.103354 -15.489115 6.938511 23.955224 1.695968 21.077329 2.546905 -0.871660 -2.457710 0.000000 0.000000 0.000000 -74.298607 -23.247773 96.173578 23.472024 -0.167764 7.267703 7.433104 -2.373259 4.831608 -0.205791 4.168983 -1.133351 0.000000 0.000000 0.000000 3.212067 -1.668102 4.359318 13.639925 -8.903628 9.818537 -31.214105 -18.013173 -2.032686 0.000000 0.000000 0.000000 5.568978 -1.475417 5.854001 -0.367982 -7.351449 -10.587748 0.639442 -5.405936 -6.426033 -62.725623 32.242871 -15.918138 68.918296 -15.576260 50.080689 0.000000 0.000000 0.000000 5.911180 -1.568372 3.843925 5.400532 8.169033 -16.463396 -12.943135 -15.182764 5.642123 -21.033141 12.354637 12.338714 -20.228821 10.766974 5.547932 0.000000 0.000000 0.000000 
-94.128220 28.981564 -1.685017 0.000000 0.000000 0.000000 -79.236908 -13.623922 103.213584 -28.724876 3.373727 15.467622 33.454301 14.853858 -1.026772 16.907332 -4.762555 -5.922418 -5.003427 -3.092426 4.685905 0.000000 0.000000 0.000000 -88.291936 -20.726093 104.262325 -36.464707 -22.909530 -41.072636 56.204291 -15.961763 6.845962 28.618341 1.182781 19.704377 -0.183170 -1.891820 -2.439646 0.000000 0.000000 0.000000 -75.156833 -21.619806 96.246012 22.336501 -0.452722 7.487924 6.444148 -2.367121 4.786507 -0.823240 4.737482 -1.262499 0.000000 0.000000 0.000000 2.176445 -1.615189 4.276951 14.657041 -11.087864 12.863800 -30.586717 -17.992439 -0.291006 0.000000 0.000000 0.000000 5.014354 -1.509985 5.660911 -0.347883 -7.329453 -8.227038 1.286847 -4.166879 -5.456287 -58.588932 28.103054 -17.743920 62.949551 -13.546915 47.394976 0.000000 0.000000 0.000000 5.477364 -1.278090 3.844726 4.899802 5.298801 -19.165881 -13.257799 -13.565550 4.609945 -22.519595 6.794023 11.634582 -23.189455 9.609332 5.674252 0.000000 0.000000 0.000000 
-96.173729 27.823700 -0.759624 0.000000 0.000000 0.000000 -79.943410 -10.629153 104.685790 -26.570804 4.675101 14.834495 29.103832 13.561145 -0.599156 9.594801 -5.088751 -2.967722 -3.549120 -3.135219 3.799731 0.000000 0.000000 0.000000 -87.776817 -19.053335 103.745048 -40.405104 -23.826372 -45.514543 58.787896 -16.207037 6.854799 31.167348 1.972973 18.599240 -1.067281 -2.292666 -3.360663 0.000000 0.000000 0.000000 -75.230162 -19.082657 97.023281 20.357483 -0.827965 6.846235 5.402113 -2.121723 4.796738 -1.645127 4.833133 -0.781736 0.000000 0.000000 0.000000 1.078456 -1.370894 4.258032 16.106766 -13.315123 15.558421 -28.815359 -18.466205 1.213177 0.000000 0.000000 0.000000 4.056627 -1.315903 5.434387 -0.506020 -6.745136 -6.917929 0.312259 -3.198005 -4.207416 -56.010785 26.799174 -17.916208 56.979316 -13.877551 45.119437 0.000000 0.000000 0.000000 4.832994 -0.806530 3.918004 4.551840 3.417093 -21.609387 -13.003727 -12.304744 4.032693 -24.683856 -0.194009 10.544747 -25.521436 10.322763 5.455056 0.000000 0.000000 0.000000 
